# xmcd
#
# Track frame offsets:
#	150
#	20632
#	40129
#	57377
#	75553
#	89408
#	109651
#	138738
#	165732
#	184102
#	205246
#
# Disc length: 3002 seconds
#
# Revision: 1
# Processed by: cddbd v1.5.2PL0 Copyright (c) Steve Scherf et al.
# Submitted via: audiograbber 1.83.01
#
DISCID=950bb80b
DTITLE=The Blues Buffet - Tasty Dishes
DYEAR=1900
DGENRE=Blues 
TTITLE0=Dirty Water
TTITLE1=Mother of the Blues
TTITLE2=Mower Man
TTITLE3=Pastry
TTITLE4=The Bar Fly
TTITLE5=Hot Sun
TTITLE6=The C.E.O. Wanker Blues
TTITLE7=Be Careful
TTITLE8=Bell St. Boogie
TTITLE9=Duped
TTITLE10=Blue Overalls (Pink Sneakers)
EXTD=
EXTT0=
EXTT1=
EXTT2=
EXTT3=
EXTT4=
EXTT5=
EXTT6=
EXTT7=
EXTT8=
EXTT9=
EXTT10=
PLAYORDER=
